<svg version="1.1" xmlns="http://www.w3.org/2000/svg" style="display: block;" viewBox="0 0 2048 2046" width="879" height="878" preserveAspectRatio="none">
<defs>
	<linearGradient id="Gradient1" gradientUnits="userSpaceOnUse" x1="1366.8" y1="1757.78" x2="1445.01" y2="1707.81">
		<stop class="stop0" offset="0" stop-opacity="1" stop-color="rgb(181,122,30)"/>
		<stop class="stop1" offset="1" stop-opacity="1" stop-color="rgb(147,130,42)"/>
	</linearGradient>
	<linearGradient id="Gradient2" gradientUnits="userSpaceOnUse" x1="1718.38" y1="1073.35" x2="1739.95" y2="1097.27">
		<stop class="stop0" offset="0" stop-opacity="1" stop-color="rgb(143,195,51)"/>
		<stop class="stop1" offset="1" stop-opacity="1" stop-color="rgb(108,181,88)"/>
	</linearGradient>
	<linearGradient id="Gradient3" gradientUnits="userSpaceOnUse" x1="968.377" y1="1668.98" x2="1995.21" y2="742.78">
		<stop class="stop0" offset="0" stop-opacity="1" stop-color="rgb(51,125,53)"/>
		<stop class="stop1" offset="1" stop-opacity="1" stop-color="rgb(89,155,58)"/>
	</linearGradient>
	<linearGradient id="Gradient4" gradientUnits="userSpaceOnUse" x1="174.093" y1="1591.88" x2="1237.26" y2="237.939">
		<stop class="stop0" offset="0" stop-opacity="1" stop-color="rgb(253,108,14)"/>
		<stop class="stop1" offset="1" stop-opacity="1" stop-color="rgb(254,150,29)"/>
	</linearGradient>
</defs>
<path transform="translate(0,0)" fill="rgb(255,255,255)" d="M 0 0 L 2048 0 L 2048 2046 L 0 2046 L 0 0 z"/>
<path transform="translate(0,0)" fill="url(#Gradient4)" d="M 397.072 1768.4 C 382.38 1756.65 366.576 1745.9 351.905 1734.01 C 240.815 1643.94 156.043 1527.23 119.344 1387.8 C 110.924 1357.78 104.32 1327.66 101.495 1296.52 C 62.1284 862.397 439.611 461.175 838.366 356.757 C 886.239 344.583 934.992 336.175 984.177 331.61 C 1201.9 308.944 1419.63 374.439 1588.72 513.463 L 1587.58 516.384 C 1474.84 439.689 1316.29 400.734 1180.95 404.348 C 990.374 409.438 815.297 481.102 664.705 596.045 C 621.421 628.435 580.987 664.469 543.847 703.752 C 394.531 862.481 296.023 1057.64 300.654 1280.57 C 304.226 1452.52 373.971 1615.65 500.091 1734.13 C 462.799 1750 436.968 1759.58 397.072 1768.4 z"/>
<path transform="translate(0,0)" fill="url(#Gradient3)" d="M 1631.91 1023.51 C 1632.57 955.169 1661.28 882.001 1710.37 834.059 C 1750.48 794.982 1804.52 773.528 1860.51 774.46 C 1884.71 774.867 1906.8 779.725 1929.85 786.531 C 1967.61 797.677 2001.89 795.639 2039.42 785.928 C 2037.55 810.798 2037.42 835.487 2035.33 860.242 C 2027.34 954.996 1957.19 1030.36 1860.78 1036.12 C 1844.46 1037.12 1829.47 1036.61 1813.54 1041.19 C 1732.8 1064.41 1688.83 1156.22 1668.99 1231.3 C 1657.51 1276.98 1658.58 1323.56 1655.63 1369.94 C 1651.98 1427.44 1616.36 1486.9 1571.6 1523.42 C 1404.13 1660.08 1158.52 1666.48 959.597 1605.52 C 929.511 1596.3 901.31 1581.73 872.438 1570.87 C 909.694 1563.04 947.921 1544.36 983.056 1529.47 C 998.033 1523.12 1014.29 1517.5 1028.41 1509.4 C 1037.26 1504.32 1044.69 1496.77 1052.65 1490.42 C 1064.41 1481.05 1079.1 1474.76 1093.13 1469.66 C 1197.62 1431.63 1377.62 1428.34 1487.91 1445.78 C 1500.33 1447.74 1538.33 1455.07 1547.21 1461.42 C 1549.55 1463.1 1550.19 1464.65 1550.54 1467.41 C 1548.96 1471.39 1545.08 1473.18 1541.24 1474.62 C 1459.13 1505.26 1365.28 1472.1 1284.6 1510.17 C 1260.67 1519.79 1246.82 1546.41 1280.47 1555.21 C 1338.48 1570.37 1412.89 1553.4 1468.61 1534 C 1525.97 1514.03 1589.9 1472.13 1607.48 1410.94 C 1616.15 1380.78 1617.42 1347.51 1607.6 1317.49 C 1605.68 1311.44 1596.35 1291.28 1595.68 1288.43 C 1575.28 1285.36 1558.32 1282.58 1537.63 1285.18 C 1505.31 1289.24 1476.02 1303.54 1444.87 1311.4 C 1412.06 1319.69 1365.01 1319.55 1333.78 1304.92 C 1303.16 1287.62 1295.96 1274.47 1270.14 1255.36 C 1278.43 1246.6 1286.45 1238.35 1293.5 1228.5 C 1347.87 1152.54 1344.79 1054.98 1285.75 983.476 L 1286.35 981.913 C 1370.15 1053.21 1492.33 1043.51 1565.54 962.279 C 1592.08 982.81 1612.78 1003.26 1630.18 1032.26 L 1631.91 1023.51 z"/>
<path transform="translate(0,0)" fill="rgb(144,203,51)" d="M 1333.78 1304.92 C 1382.79 1225.8 1463.57 1191.77 1549.17 1242.31 C 1565.22 1251.79 1587.8 1271.16 1595.68 1288.43 C 1575.28 1285.36 1558.32 1282.58 1537.63 1285.18 C 1505.31 1289.24 1476.02 1303.54 1444.87 1311.4 C 1412.06 1319.69 1365.01 1319.55 1333.78 1304.92 z"/>
<path transform="translate(0,0)" fill="rgb(144,203,51)" d="M 1637.7 1040.98 C 1655.54 1064.5 1663.37 1107.77 1659.34 1136.53 C 1659.06 1138.51 1658.73 1140.48 1658.37 1142.44 L 1657.79 1142.85 C 1655.25 1127.47 1654.85 1116.89 1653.56 1101.52 C 1651.71 1079.42 1643.39 1060.89 1634.06 1041.13 L 1637.7 1040.98 z"/>
<path transform="translate(0,0)" fill="rgb(144,203,51)" d="M 1630.18 1032.26 L 1631.91 1023.51 C 1632.03 1032.81 1632.38 1033.32 1637.7 1040.98 L 1634.06 1041.13 C 1632.01 1037.49 1631.59 1036.25 1630.18 1032.26 z"/>
<path transform="translate(0,0)" fill="url(#Gradient2)" d="M 1813.8 1025.3 C 1816.44 1025.04 1818.62 1024.51 1821.01 1025.48 C 1816.15 1028.83 1784.8 1036.67 1775.12 1041.57 C 1735.47 1061.65 1704.1 1087.38 1679.41 1124.67 C 1671.12 1137.2 1665.36 1149.08 1657.83 1161.66 L 1655.96 1164.16 L 1654.81 1164.18 C 1655.79 1157.12 1670.12 1128.67 1674.36 1122.12 C 1706.4 1072.86 1756.45 1038.1 1813.8 1025.3 z"/>
<path transform="translate(0,0)" fill="rgb(246,113,17)" d="M 678.958 669.622 L 681.188 672.331 C 670.05 686.648 654.731 712.481 645.319 728.602 C 574.027 848.894 544.248 989.283 560.565 1128.16 C 580.394 1294.35 665.859 1445.72 797.925 1548.54 C 899.15 1628.81 1021.27 1678.36 1149.81 1691.32 C 1222.11 1699.68 1322.65 1690.34 1391.53 1666.96 C 1430.01 1653.91 1480.61 1626.67 1515.11 1605.35 C 1507.25 1619.3 1421.77 1656.87 1403.66 1664.55 C 1409.18 1679.26 1418.87 1682.76 1425.71 1695.96 C 1427.78 1699.96 1427.15 1698.4 1430.04 1701.37 C 1440.11 1711.73 1441.03 1722.1 1451.22 1734.87 C 1461.38 1747.58 1476.54 1753.2 1481.99 1766.06 C 1482.93 1768.27 1482.93 1768.16 1484.94 1769.65 L 1486.17 1768.53 C 1490.27 1764.81 1496.4 1760.41 1500.98 1757.03 C 1517.83 1744.6 1533.34 1730.92 1548.97 1717.01 C 1552.24 1714.1 1557.15 1708.77 1560.64 1706.69 L 1562.17 1707.03 C 1553.06 1718.66 1514.4 1749.58 1501.67 1759.27 C 1466.43 1786.11 1415.83 1822.59 1373.72 1836.96 C 1341.52 1847.95 1285.56 1855.8 1251.99 1859.78 C 1249.59 1860.07 1247.18 1860.3 1244.77 1860.48 C 1230.49 1864.86 1153.38 1864.62 1136.16 1864.09 C 925.722 1857.57 717.017 1780.51 571.905 1623.67 C 465.72 1510.12 409.864 1358.51 416.996 1203.21 C 425.254 1002.19 532.776 804.345 678.958 669.622 z"/>
<path transform="translate(0,0)" fill="url(#Gradient1)" d="M 1515.11 1605.35 C 1507.25 1619.3 1421.77 1656.87 1403.66 1664.55 C 1409.18 1679.26 1418.87 1682.76 1425.71 1695.96 C 1427.78 1699.96 1427.15 1698.4 1430.04 1701.37 C 1440.11 1711.73 1441.03 1722.1 1451.22 1734.87 C 1461.38 1747.58 1476.54 1753.2 1481.99 1766.06 C 1482.93 1768.27 1482.93 1768.16 1484.94 1769.65 L 1486.17 1768.53 C 1490.27 1764.81 1496.4 1760.41 1500.98 1757.03 C 1517.83 1744.6 1533.34 1730.92 1548.97 1717.01 C 1552.24 1714.1 1557.15 1708.77 1560.64 1706.69 L 1562.17 1707.03 C 1553.06 1718.66 1514.4 1749.58 1501.67 1759.27 C 1466.43 1786.11 1415.83 1822.59 1373.72 1836.96 C 1341.52 1847.95 1285.56 1855.8 1251.99 1859.78 C 1249.59 1860.07 1247.18 1860.3 1244.77 1860.48 C 1243.68 1860.07 1243.36 1859.8 1242.36 1859.19 C 1283.96 1854.39 1326.19 1847.77 1366.73 1837.02 C 1382.8 1832.76 1390.32 1826.95 1404.59 1820.87 C 1407.41 1812.53 1381.75 1770.87 1374.77 1763.46 C 1353.19 1740.55 1352.58 1726.59 1350.28 1696.52 L 1348.11 1695.96 C 1347.82 1689.21 1347.61 1687.73 1350.65 1681.72 C 1336.99 1681.92 1309.81 1689.08 1294.25 1690.78 C 1255.84 1695.08 1216.79 1698.45 1178.18 1695.06 C 1170.59 1694.4 1155.72 1695.45 1149.81 1691.32 C 1222.11 1699.68 1322.65 1690.34 1391.53 1666.96 C 1430.01 1653.91 1480.61 1626.67 1515.11 1605.35 z"/>
<path transform="translate(0,0)" fill="rgb(246,113,17)" d="M 19.8325 1135 C 18.628 1113.63 15.5121 1092.21 14.4704 1069.87 C 12.0597 1013.17 15.3686 956.368 24.3472 900.33 C 33.181 846.759 47.0349 794.138 65.7257 743.162 C 128.902 568.269 243.648 416.655 394.805 308.349 C 587.934 168.937 828.343 111.522 1063.63 148.619 C 1217.68 173.049 1362.87 236.643 1485.29 333.305 C 1543.24 378.667 1584.61 418.369 1627.75 477.855 L 1623.61 477.636 C 1478.92 329.894 1272.29 259.175 1068.14 256.808 C 826.108 254.001 586.903 344.918 396.863 492.737 C 357.796 523.648 320.45 556.674 284.994 591.667 C 265.164 611.073 240.927 639.157 223.171 660.464 C 110.696 795.437 34.9073 955.434 23.2014 1132.26 L 19.8325 1135 z"/>
<path transform="translate(0,0)" fill="rgb(68,139,56)" d="M 1048.97 548.459 C 1112.56 549.321 1169.08 572.021 1212.76 617.986 C 1219.46 625.036 1226.8 631.995 1233.7 638.912 C 1192.26 673.326 1169.73 721.476 1167.43 775.176 C 1165.45 827.029 1183.89 877.589 1218.78 915.999 C 1215.45 913.149 1212.06 910.358 1208.63 907.627 C 1162.68 871.62 1109.07 858.793 1051.78 866.11 C 1011.75 873.064 975.13 889.216 946.095 918.182 C 943.024 921.245 938.946 924.591 935.691 927.497 C 917.531 907.71 899.448 896.554 881.496 873.099 C 845.014 825.433 831.471 769.233 847.816 710.678 C 853.894 688.904 864.155 669.461 866.924 646.727 C 871.046 618.345 868.25 599.713 865.228 571.808 C 903.04 582.927 938.013 580.046 974.482 566.015 C 1003.95 554.678 1017.23 549.609 1048.97 548.459 z"/>
<path transform="translate(0,0)" fill="rgb(68,139,56)" d="M 1437.71 549.434 C 1487.38 547.823 1489.76 556.675 1530.65 569.527 C 1563.25 579.748 1598.05 580.707 1631.17 572.296 C 1627.94 600.236 1624.64 632.044 1631.51 659.407 C 1641.39 698.68 1657.17 722.787 1655.1 765.801 C 1651.4 842.836 1615.38 880.464 1563.5 929.055 C 1525.64 889.742 1486.63 871.059 1432.79 865.154 C 1384.64 860.421 1338.75 875.992 1298.66 902.617 C 1288.07 909.655 1280.87 919.902 1270.39 926.804 C 1273.98 922.889 1277.55 918.95 1281.08 914.988 C 1316.64 875.37 1334.86 823.175 1331.7 770.037 C 1328.5 717.419 1305.77 672.229 1266.33 637.388 C 1280.59 627.305 1291.38 612.24 1304.11 601.288 C 1342.53 568.247 1387.92 552.092 1437.71 549.434 z"/>
<path transform="translate(0,0)" fill="rgb(68,139,56)" d="M 934.182 961.51 C 941.174 968.956 948.606 976.942 956.35 983.59 C 1027.75 1044.89 1139.7 1044.42 1211.46 982.812 L 1213.21 985.437 C 1206.62 991.922 1199.8 1003.13 1195.11 1011.14 C 1145.73 1095.62 1164.3 1186.27 1230.18 1255.71 C 1217.84 1265.02 1207.73 1277.2 1195.96 1287.31 C 1146.2 1330.06 1071 1350.85 1006.88 1333.45 C 996.868 1330.74 986.588 1324.44 976.578 1321.05 C 940.373 1309.08 901.534 1307.53 864.489 1316.56 C 872.161 1266.09 869.068 1232.15 849.191 1184.8 C 840.065 1163.06 839.668 1127.29 842.706 1104.04 C 850.916 1041.19 885.367 999.172 934.182 961.51 z"/>
<path transform="translate(0,0)" fill="rgb(68,139,56)" d="M 1823.36 1141.02 C 1826.38 1145.54 1824.72 1157.26 1825.17 1163.54 C 1821.37 1330.33 1729.1 1518.52 1622.44 1643.44 C 1607.54 1660.89 1591.44 1679.56 1574.83 1695.45 C 1570.72 1699.43 1566.5 1703.3 1562.17 1707.03 L 1560.64 1706.69 C 1557.15 1708.77 1552.24 1714.1 1548.97 1717.01 C 1533.34 1730.92 1517.83 1744.6 1500.98 1757.03 C 1496.4 1760.41 1490.27 1764.81 1486.17 1768.53 L 1484.94 1769.65 C 1482.93 1768.16 1482.93 1768.27 1481.99 1766.06 C 1476.54 1753.2 1461.38 1747.58 1451.22 1734.87 C 1441.03 1722.1 1440.11 1711.73 1430.04 1701.37 C 1427.15 1698.4 1427.78 1699.96 1425.71 1695.96 C 1418.87 1682.76 1409.18 1679.26 1403.66 1664.55 C 1421.77 1656.87 1507.25 1619.3 1515.11 1605.35 C 1517.36 1603.12 1542.27 1586.45 1547.68 1582.42 C 1670.53 1490.54 1760.84 1361.85 1805.49 1215.08 C 1812.2 1192.53 1819.89 1164.37 1823.36 1141.02 z"/>
<path transform="translate(0,0)" fill="rgb(68,139,56)" d="M 1069.71 890.419 C 1115.18 885.43 1166.37 903.797 1200.09 933.994 C 1204.62 938.048 1209.21 941.979 1213.83 945.928 C 1175.59 982.516 1150.76 995.954 1097.24 1002.9 C 1089.68 1003.3 1082.1 1003.36 1074.53 1003.07 C 1025.87 1000.75 985.126 981.236 952.387 945.14 C 986.914 911.899 1021.77 894.464 1069.71 890.419 z"/>
<path transform="translate(0,0)" fill="rgb(68,139,56)" d="M 1397.37 891.349 C 1405.63 890.631 1413.91 890.385 1422.19 890.611 C 1468.4 892.028 1514.62 913.741 1546.07 947.484 C 1511.27 980.455 1481.97 997.27 1433.25 1002.58 C 1431.5 1002.77 1429.75 1002.92 1428 1003.03 C 1387.85 1006.02 1347.88 995.202 1314.72 972.365 C 1305.47 965.909 1294.76 956.128 1286.07 948.552 C 1316.24 915.959 1353.52 897.017 1397.37 891.349 z"/>
<path transform="translate(0,0)" fill="rgb(68,139,56)" d="M 1249.8 983.067 C 1315.27 1046.46 1325.1 1136.88 1273.09 1212.99 C 1267.1 1221.75 1257.56 1231.19 1250.31 1239.12 C 1192.86 1181.63 1173.9 1099.26 1215.75 1026.58 C 1225.64 1009.4 1236.63 997.569 1249.8 983.067 z"/>
<path transform="translate(0,0)" fill="rgb(68,139,56)" d="M 1249.4 656.843 C 1251.75 657.569 1258.04 664.533 1259.9 666.56 C 1291.57 701.072 1307.94 742.98 1305.88 789.932 C 1303.63 835.83 1283.49 879.021 1249.78 910.246 C 1246.38 908.704 1235.42 895.682 1232.8 892.452 C 1208.13 862.013 1195 827.052 1193.33 787.893 C 1191.99 752.557 1202.17 717.743 1222.33 688.691 C 1230.32 677.405 1240.07 667.065 1249.4 656.843 z"/>
<path transform="translate(0,0)" fill="rgb(246,113,17)" d="M 584.195 1684.09 C 585.534 1684.88 592.754 1693.09 594.44 1694.92 C 611.053 1712.95 627.258 1730.73 646.366 1746.22 C 650.938 1749.93 655.798 1754.63 660.234 1758.65 C 638.827 1771.68 610.432 1793.99 588.56 1804.77 C 584.365 1804.31 584.928 1803.75 580.954 1800.75 C 550.169 1776.92 529.923 1759.05 500.688 1733.37 C 512.871 1726.33 526.946 1719.63 539.496 1712.75 C 556.288 1703.54 568.692 1695.13 584.195 1684.09 z"/>
<path transform="translate(0,0)" fill="rgb(246,113,17)" d="M 587.088 1807.79 C 591.637 1809.49 614.38 1823.44 620.061 1826.66 C 638.422 1836.88 657.296 1846.15 676.61 1854.43 C 660.517 1870.73 630.615 1889.77 610.613 1901.25 C 607.459 1903.06 605.741 1901.7 602.684 1900.53 C 578.059 1887.79 553.405 1875.75 530.14 1860.59 C 522.838 1855.83 515.041 1851.31 507.577 1846.76 C 535.521 1832.1 557.267 1827.37 587.088 1807.79 z"/>
<path transform="translate(0,0)" fill="rgb(246,113,17)" d="M 725.53 1792.52 C 737.238 1800.76 786.684 1821.42 803.711 1829.22 C 793.667 1841.38 776.84 1869.82 767.74 1883.48 C 764.518 1884.32 761.568 1882.62 758.257 1881.37 C 734.164 1872.67 702.234 1860.36 678.028 1853.6 C 691.384 1837.28 714.52 1809.65 725.53 1792.52 z"/>
<path transform="translate(0,0)" fill="rgb(246,113,17)" d="M 767.293 1884.8 C 795.598 1894.94 819.789 1904.17 848.767 1913.35 C 839.617 1928.26 824.843 1953.35 815.754 1966.52 C 813.149 1967.42 810.623 1966.2 807.815 1965.37 C 780.64 1959.91 752.125 1951.61 724.773 1945.25 C 736.788 1931.68 757.639 1900.5 767.293 1884.8 z"/>
<path transform="translate(0,0)" fill="rgb(160,174,163)" d="M 1823.36 1141.02 C 1824.24 1131.55 1825.49 1121.72 1825.89 1112.29 L 1826.44 1112.69 C 1827 1119.16 1826.42 1157.35 1825.17 1163.54 C 1824.72 1157.26 1826.38 1145.54 1823.36 1141.02 z"/>
<path transform="translate(0,0)" fill="rgb(160,174,163)" d="M 1211.46 982.812 C 1217.45 976.932 1223.42 970.682 1230.23 965.819 L 1230.34 966.648 C 1224.7 973.782 1219.54 978.973 1213.21 985.437 L 1211.46 982.812 z"/>
<path transform="translate(0,0)" fill="rgb(219,174,124)" d="M 693.341 655.709 C 690.224 661.049 685.405 667.83 681.188 672.331 L 678.958 669.622 C 683.633 664.863 688.429 660.224 693.341 655.709 z"/>
<path transform="translate(0,0)" fill="rgb(219,174,124)" d="M 19.8325 1135 L 23.2014 1132.26 C 23.2501 1137.08 23.7633 1143.16 22.2609 1147.54 C 20.6651 1145.5 19.9263 1137.78 19.8325 1135 z"/>
<path transform="translate(0,0)" fill="rgb(219,174,124)" d="M 1588.72 513.463 C 1594.76 518.287 1598.05 521.523 1603.5 527.085 C 1598.21 523.642 1592.61 520.16 1587.58 516.384 L 1588.72 513.463 z"/>
<path transform="translate(0,0)" fill="rgb(202,122,77)" d="M 1627.75 477.855 L 1639.89 492.446 C 1633.93 488.132 1628.47 483.165 1623.61 477.636 L 1627.75 477.855 z"/>
<path transform="translate(0,0)" fill="rgb(231,232,231)" d="M 1285.75 983.476 C 1283.1 980.76 1279.93 978.095 1279.39 974.564 L 1281.24 974.984 C 1284.16 978.007 1284.41 978.246 1286.35 981.913 L 1285.75 983.476 z"/>
</svg>